<?xml version="1.0" encoding="UTF-8"?>
<svg width="174px" height="31px" viewBox="0 0 174 31" version="1.1" xmlns="http://www.w3.org/2000/svg" xmlns:xlink="http://www.w3.org/1999/xlink">
    <!-- Generator: Sketch 48.1 (47250) - http://www.bohemiancoding.com/sketch -->
    <title>Group 5@1x</title>
    <desc>Created with Sketch.</desc>
    <defs>
        <path d="M50.5742595,3.55702918 L50.5742595,23.0809019 C50.5742595,23.2665792 50.5409195,23.4104769 50.4742386,23.5125995 C50.4075577,23.614722 50.2694351,23.6657825 50.0598665,23.6657825 L49.4597413,23.6657825 C49.0977593,23.6657825 48.916771,23.4708242 48.916771,23.0809019 L48.916771,21.3541114 C48.8024608,21.5583565 48.6214725,21.8090171 48.3738006,22.1061008 C48.1261286,22.4031845 47.797492,22.69098 47.3878807,22.969496 C46.9782694,23.248012 46.4734073,23.484747 45.8732791,23.6797082 C45.2731509,23.8746694 44.5539605,23.9721485 43.7156863,23.9721485 C42.7821536,23.9721485 41.9057891,23.786474 41.0865665,23.4151194 C40.267344,23.0437647 39.5576793,22.5378016 38.9575511,21.8972149 C38.3574229,21.2566281 37.8811379,20.5046462 37.5286817,19.6412467 C37.1762255,18.7778471 37,17.8541163 37,16.8700265 C37,15.8859367 37.1762255,14.957564 37.5286817,14.0848806 C37.8811379,13.2121972 38.3574229,12.4555735 38.9575511,11.8149867 C39.5576793,11.1744 40.267344,10.6684369 41.0865665,10.2970822 C41.9057891,9.92572759 42.7821536,9.74005305 43.7156863,9.74005305 C45.0302527,9.74005305 46.1161826,10.0556998 46.9735086,10.6870027 C47.8308345,11.3183055 48.4785822,12.0795711 48.916771,12.9708223 L48.916771,3.55702918 C48.916771,3.18567454 49.0977593,3 49.4597413,3 L50.0598665,3 C50.2694351,3 50.4075577,3.0510605 50.4742386,3.15318302 C50.5409195,3.25530555 50.5742595,3.38991959 50.5742595,3.55702918 Z M49.0310805,16.8700265 C49.0310805,16.1087495 48.8929579,15.3892607 48.6167084,14.7115385 C48.3404589,14.0338162 47.9641937,13.4442996 47.4879015,12.9429708 C47.0116094,12.4416421 46.4591187,12.0424418 45.830413,11.7453581 C45.2017073,11.4482744 44.5349083,11.2997347 43.8299958,11.2997347 C43.1250834,11.2997347 42.4582843,11.4482744 41.8295786,11.7453581 C41.200873,12.0424418 40.6531452,12.4416421 40.1863788,12.9429708 C39.7196125,13.4442996 39.3481101,14.0338162 39.0718607,14.7115385 C38.7956112,15.3892607 38.6574885,16.1087495 38.6574885,16.8700265 C38.6574885,17.6313035 38.7956112,18.3507924 39.0718607,19.0285146 C39.3481101,19.7062368 39.7196125,20.2957535 40.1863788,20.7970822 C40.6531452,21.298411 41.200873,21.6976112 41.8295786,21.994695 C42.4582843,22.2917787 43.1250834,22.4403183 43.8299958,22.4403183 C44.5349083,22.4403183 45.2017073,22.2917787 45.830413,21.994695 C46.4591187,21.6976112 47.0116094,21.298411 47.4879015,20.7970822 C47.9641937,20.2957535 48.3404589,19.7062368 48.6167084,19.0285146 C48.8929579,18.3507924 49.0310805,17.6313035 49.0310805,16.8700265 Z M54.4893617,23.1923077 L54.4893617,10.6870027 C54.4893617,10.2599448 54.6417729,10.0464191 54.9465999,10.0464191 L55.6610346,10.0464191 C55.8324998,10.0464191 55.9420454,10.0974796 55.9896746,10.1996021 C56.0373038,10.3017246 56.0706438,10.427055 56.0896955,10.5755968 L56.1182728,12.1074271 C56.3849965,11.420421 56.846993,10.8680392 57.5042762,10.4502653 C58.1615594,10.0324913 58.9474297,9.82360743 59.8619107,9.82360743 C60.2810478,9.82360743 60.75257,9.89787724 61.2764914,10.0464191 C61.8004129,10.194961 62.2243065,10.3806355 62.5481852,10.6034483 C62.6434437,10.6962869 62.7387007,10.8123335 62.8339591,10.9515915 C62.9292176,11.0908495 62.9292176,11.2347473 62.8339591,11.3832891 L62.4052983,11.9960212 C62.3100399,12.1074276 62.2004943,12.1584881 62.0766583,12.1492042 C61.9528224,12.1399204 61.8623282,12.1167111 61.8051731,12.0795756 C61.5384495,11.912466 61.2241014,11.7592845 60.8621193,11.6200265 C60.5001373,11.4807685 60.1286349,11.4111406 59.7476012,11.4111406 C59.2141539,11.4111406 58.7283432,11.531829 58.2901544,11.7732095 C57.8519655,12.0145901 57.4709375,12.3302368 57.1470588,12.7201592 C56.8231801,13.1100815 56.5707491,13.5603423 56.389758,14.0709549 C56.208767,14.5815675 56.1182728,15.1060981 56.1182728,15.6445623 L56.1182728,23.1644562 C56.1182728,23.4986754 55.9468102,23.6657825 55.6038798,23.6657825 L55.0037547,23.6657825 C54.6608243,23.6657825 54.4893617,23.5079591 54.4893617,23.1923077 Z M65.0629954,23.1644562 L65.0629954,10.5477454 C65.0629954,10.2135262 65.2439837,10.0464191 65.6059658,10.0464191 L66.1775136,10.0464191 C66.5394956,10.0464191 66.7204839,10.2135262 66.7204839,10.5477454 L66.7204839,23.1644562 C66.7204839,23.4986754 66.5394956,23.6657825 66.1775136,23.6657825 L65.6059658,23.6657825 C65.2439837,23.6657825 65.0629954,23.4986754 65.0629954,23.1644562 Z M64.5486024,6.06366048 C64.5486024,5.69230584 64.6771994,5.38130099 64.9343972,5.1306366 C65.1915949,4.87997222 65.5011802,4.75464191 65.8631623,4.75464191 C66.244196,4.75464191 66.563307,4.87997222 66.8205048,5.1306366 C67.0777026,5.38130099 67.2062995,5.69230584 67.2062995,6.06366048 C67.2062995,6.41644739 67.0777026,6.71816851 66.8205048,6.96883289 C66.563307,7.21949727 66.244196,7.34482759 65.8631623,7.34482759 C65.5011802,7.34482759 65.1915949,7.21949727 64.9343972,6.96883289 C64.6771994,6.71816851 64.5486024,6.41644739 64.5486024,6.06366048 Z M75.7223613,21.0755968 L80.3518982,10.2413793 C80.428105,10.1114052 80.5614648,10.0464191 80.7519816,10.0464191 L81.6664581,10.0464191 C81.8188716,10.0464191 81.93318,10.083554 82.0093867,10.1578249 C82.0855935,10.2320959 82.0665421,10.3992029 81.952232,10.6591512 L76.5225282,23.2758621 C76.408218,23.5358103 76.217704,23.6657825 75.9509804,23.6657825 L75.5223196,23.6657825 C75.2365443,23.6657825 75.0365045,23.5358103 74.9221944,23.2758621 L69.4924906,10.6591512 C69.3972322,10.3992029 69.3829436,10.2320959 69.4496245,10.1578249 C69.5163054,10.083554 69.6353767,10.0464191 69.8068419,10.0464191 L70.7213183,10.0464191 C70.9118352,10.0464191 71.0356693,10.1114052 71.0928244,10.2413793 L75.7223613,21.0755968 Z M89.8395912,23.9721485 C88.8870068,23.9721485 87.9915909,23.786474 87.1533166,23.4151194 C86.3150424,23.0437647 85.5863263,22.5331597 84.9671464,21.8832891 C84.3479666,21.2334185 83.8621558,20.4767948 83.5096996,19.6133952 C83.1572434,18.7499957 82.9810179,17.8355486 82.9810179,16.8700265 C82.9810179,15.8859367 83.1572434,14.9622059 83.5096996,14.0988064 C83.8621558,13.2354068 84.3432037,12.4787831 84.9528577,11.8289125 C85.5625117,11.1790418 86.2769393,10.6684369 87.0961619,10.2970822 C87.9153844,9.92572759 88.7917489,9.74005305 89.7252816,9.74005305 C90.6207109,9.74005305 91.4637354,9.92108572 92.2543805,10.2831565 C93.0450255,10.6452273 93.7356388,11.1372648 94.3262411,11.7592838 C94.9168434,12.3813028 95.3883656,13.1100754 95.7408219,13.9456233 C96.0932781,14.7811713 96.2695035,15.6724091 96.2695035,16.6193634 C96.2695035,16.9535826 96.1647208,17.176392 95.9551523,17.2877984 C95.7455837,17.3992048 95.4788641,17.4549072 95.1549854,17.4549072 L84.6385065,17.4549072 C84.6766098,18.1419132 84.8385468,18.7871323 85.1243221,19.3905836 C85.4100974,19.9940348 85.7863626,20.5185654 86.2531289,20.964191 C86.7198953,21.4098166 87.2580974,21.7625982 87.8677514,22.0225464 C88.4774054,22.2824947 89.125153,22.4217506 89.8110138,22.4403183 L89.8681685,22.4403183 C90.6683394,22.4403183 91.4256326,22.2824949 92.1400709,21.9668435 C92.8545092,21.6511921 93.4689169,21.2334244 93.9833125,20.7135279 C94.1166743,20.5835537 94.2500341,20.5185676 94.3833959,20.5185676 C94.5167577,20.5185676 94.6310661,20.5649863 94.7263246,20.6578249 L95.0692532,21.1312997 C95.202615,21.2798416 95.2597693,21.4098138 95.2407176,21.5212202 C95.2216659,21.6326266 95.0978318,21.7904499 94.8692115,21.994695 C94.1833508,22.5888624 93.4212947,23.0669743 92.5830204,23.4290451 C91.7447462,23.7911159 90.8302789,23.9721485 89.8395912,23.9721485 Z M89.6681268,11.3275862 C89.0394211,11.3275862 88.4488277,11.4436328 87.8963287,11.6757294 C87.3438298,11.9078261 86.8484934,12.2281147 86.4103045,12.6366048 C85.9721157,13.0450949 85.6053763,13.5278487 85.3100751,14.0848806 C85.0147739,14.6419126 84.8099714,15.2546386 84.6956612,15.9230769 L94.6405924,15.9230769 C94.5643857,15.2732063 94.3738716,14.6651222 94.0690446,14.0988064 C93.7642176,13.5324905 93.3879525,13.0450949 92.9402378,12.6366048 C92.4925231,12.2281147 91.987661,11.9078261 91.4256362,11.6757294 C90.8636114,11.4436328 90.2777808,11.3275862 89.6681268,11.3275862 Z M98.9557781,23.1923077 L98.9557781,10.6870027 C98.9557781,10.2599448 99.1081893,10.0464191 99.4130163,10.0464191 L100.127451,10.0464191 C100.298916,10.0464191 100.408462,10.0974796 100.456091,10.1996021 C100.50372,10.3017246 100.53706,10.427055 100.556112,10.5755968 L100.584689,12.1074271 C100.851413,11.420421 101.313409,10.8680392 101.970693,10.4502653 C102.627976,10.0324913 103.413846,9.82360743 104.328327,9.82360743 C104.747464,9.82360743 105.218986,9.89787724 105.742908,10.0464191 C106.266829,10.194961 106.690723,10.3806355 107.014602,10.6034483 C107.10986,10.6962869 107.205117,10.8123335 107.300375,10.9515915 C107.395634,11.0908495 107.395634,11.2347473 107.300375,11.3832891 L106.871715,11.9960212 C106.776456,12.1074276 106.666911,12.1584881 106.543075,12.1492042 C106.419239,12.1399204 106.328745,12.1167111 106.271589,12.0795756 C106.004866,11.912466 105.690518,11.7592845 105.328536,11.6200265 C104.966554,11.4807685 104.595051,11.4111406 104.214018,11.4111406 C103.68057,11.4111406 103.19476,11.531829 102.756571,11.7732095 C102.318382,12.0145901 101.937354,12.3302368 101.613475,12.7201592 C101.289596,13.1100815 101.037165,13.5603423 100.856174,14.0709549 C100.675183,14.5815675 100.584689,15.1060981 100.584689,15.6445623 L100.584689,23.1644562 C100.584689,23.4986754 100.413227,23.6657825 100.070296,23.6657825 L99.470171,23.6657825 C99.1272407,23.6657825 98.9557781,23.5079591 98.9557781,23.1923077 Z M116.159366,12.831565 C115.854539,12.348804 115.449697,11.9588874 114.944827,11.6618037 C114.439957,11.36472 113.863652,11.2161804 113.215895,11.2161804 C112.415724,11.2161804 111.753688,11.4250642 111.229766,11.8428382 C110.705845,12.2606122 110.443888,12.8129939 110.443888,13.5 C110.443888,13.8342192 110.52962,14.1220147 110.701085,14.3633952 C110.87255,14.6047757 111.091641,14.8183015 111.358365,15.0039788 C111.625088,15.1896561 111.915622,15.3381957 112.229975,15.4496021 C112.544328,15.5610085 112.844387,15.6538458 113.130163,15.7281167 C116.426105,16.5450969 118.074051,17.9747908 118.074051,20.0172414 C118.074051,20.6485443 117.940691,21.2102097 117.673967,21.7022546 C117.407244,22.1942995 117.045267,22.6074254 116.588027,22.9416446 C116.130786,23.2758637 115.606873,23.5311662 115.01627,23.7075597 C114.425668,23.8839531 113.796972,23.9721485 113.130163,23.9721485 C112.044217,23.9721485 111.067832,23.7307716 110.20098,23.2480106 C109.334129,22.7652496 108.729247,22.0596863 108.386316,21.1312997 C108.291058,20.7970806 108.395841,20.5742711 108.700668,20.4628647 L109.243638,20.2122016 C109.548465,20.1007952 109.767556,20.1936325 109.900918,20.4907162 L109.98665,20.6299735 C110.139063,20.9270572 110.339103,21.1870015 110.586775,21.4098143 C110.834447,21.6326271 111.10593,21.8183016 111.401231,21.9668435 C111.696532,22.1153854 111.996591,22.2314319 112.301418,22.3149867 C112.606245,22.3985415 112.882491,22.4403183 113.130163,22.4403183 C113.473093,22.4403183 113.83507,22.3938997 114.216103,22.301061 C114.597137,22.2082223 114.954351,22.0643246 115.287756,21.8693634 C115.62116,21.6744022 115.897405,21.4237416 116.1165,21.117374 C116.335594,20.8110064 116.44514,20.4535829 116.44514,20.0450928 C116.44514,19.6551705 116.335594,19.3116726 116.1165,19.0145889 C115.897405,18.7175051 115.62116,18.4575608 115.287756,18.234748 C114.954351,18.0119352 114.578086,17.8309026 114.158949,17.6916446 C113.739812,17.5523866 113.330206,17.43634 112.930121,17.3435013 C112.396674,17.2135272 111.882286,17.0371364 111.386942,16.8143236 C110.891598,16.5915108 110.458179,16.3222827 110.086671,16.0066313 C109.715163,15.6909799 109.415103,15.3242726 109.186483,14.9064987 C108.957863,14.4887247 108.843554,14.0198965 108.843554,13.5 C108.843554,12.3673683 109.243634,11.4529213 110.043805,10.7566313 C110.843976,10.0603413 111.901328,9.71220159 113.215895,9.71220159 C114.187531,9.71220159 115.05437,9.90251799 115.816437,10.2831565 C116.578505,10.663795 117.207201,11.2904466 117.702545,12.16313 C117.778752,12.2931041 117.807329,12.4184344 117.788277,12.5391247 C117.769225,12.6598149 117.683494,12.7665778 117.531081,12.8594164 L117.016688,13.1657825 C116.769016,13.3328921 116.549924,13.3236084 116.359408,13.137931 C116.321304,13.1007956 116.287964,13.0590188 116.259387,13.0125995 C116.230809,12.9661801 116.197469,12.9058359 116.159366,12.831565 Z M123.046516,15.3381963 L123.046516,23.1644562 C123.046516,23.3315658 123.017939,23.4568961 122.960784,23.5404509 C122.903629,23.6240057 122.789321,23.6657825 122.617856,23.6657825 L121.874844,23.6657825 C121.684327,23.6657825 121.560493,23.6240057 121.503338,23.5404509 C121.446182,23.4568961 121.417605,23.3315658 121.417605,23.1644562 L121.417605,10.4084881 C121.417605,10.1671075 121.560491,10.0464191 121.846266,10.0464191 L122.646433,10.0464191 C122.798847,10.0464191 122.898866,10.0881959 122.946496,10.1717507 C122.994125,10.2553055 123.017939,10.3435009 123.017939,10.4363395 L123.075094,12.16313 C123.551386,11.4761239 124.184845,10.9005328 124.97549,10.4363395 C125.766135,9.97214622 126.647263,9.74005305 127.618899,9.74005305 C128.438121,9.74005305 129.200177,9.88859268 129.90509,10.1856764 C130.610002,10.4827601 131.219647,10.8958859 131.734043,11.4250663 C132.248438,11.9542467 132.65328,12.590182 132.948582,13.3328912 C133.243883,14.0756005 133.391531,14.8832848 133.391531,15.7559682 L133.391531,23.1087533 C133.391531,23.480108 133.23912,23.6657825 132.934293,23.6657825 L132.191281,23.6657825 C131.981712,23.6657825 131.853115,23.6240057 131.805486,23.5404509 C131.757857,23.4568961 131.734043,23.3222821 131.734043,23.1366048 L131.734043,15.4496021 C131.734043,14.8740024 131.619734,14.3355463 131.391114,13.8342175 C131.162494,13.3328887 130.852908,12.8965536 130.462349,12.5251989 C130.071789,12.1538443 129.619318,11.8614069 129.104923,11.647878 C128.590527,11.4343491 128.038037,11.3275862 127.447434,11.3275862 C126.875884,11.3275862 126.323393,11.4297072 125.789946,11.6339523 C125.256499,11.8381973 124.789739,12.121351 124.389654,12.4834218 C123.989568,12.8454925 123.665694,13.272544 123.418023,13.7645889 C123.170351,14.2566338 123.046516,14.7811643 123.046516,15.3381963 Z M136.24927,16.8700265 C136.24927,15.8859367 136.430258,14.9622059 136.79224,14.0988064 C137.154222,13.2354068 137.649559,12.4787831 138.278264,11.8289125 C138.90697,11.1790418 139.649975,10.6684369 140.507301,10.2970822 C141.364627,9.92572759 142.298145,9.74005305 143.307885,9.74005305 C144.317624,9.74005305 145.255906,9.92572759 146.122758,10.2970822 C146.989609,10.6684369 147.737377,11.1790418 148.366083,11.8289125 C148.994788,12.4787831 149.490125,13.2354068 149.852107,14.0988064 C150.214089,14.9622059 150.395077,15.8859367 150.395077,16.8700265 C150.395077,17.8541163 150.214089,18.7778471 149.852107,19.6412467 C149.490125,20.5046462 148.994788,21.26127 148.366083,21.9111406 C147.737377,22.5610112 146.989609,23.0716162 146.122758,23.4429708 C145.255906,23.8143255 144.317624,24 143.307885,24 C142.298145,24 141.364627,23.8143255 140.507301,23.4429708 C139.649975,23.0716162 138.90697,22.5610112 138.278264,21.9111406 C137.649559,21.26127 137.154222,20.5046462 136.79224,19.6412467 C136.430258,18.7778471 136.24927,17.8541163 136.24927,16.8700265 Z M137.878181,16.8700265 C137.878181,17.6313035 138.016304,18.3507924 138.292553,19.0285146 C138.568803,19.7062368 138.949831,20.2957535 139.435649,20.7970822 C139.921467,21.298411 140.497772,21.6976112 141.164581,21.994695 C141.83139,22.2917787 142.555343,22.4403183 143.336462,22.4403183 C144.117581,22.4403183 144.841535,22.2917787 145.508344,21.994695 C146.175153,21.6976112 146.751458,21.298411 147.237276,20.7970822 C147.723094,20.2957535 148.104122,19.7062368 148.380371,19.0285146 C148.656621,18.3507924 148.794743,17.6313035 148.794743,16.8700265 C148.794743,16.1087495 148.656621,15.3892607 148.380371,14.7115385 C148.104122,14.0338162 147.723094,13.4442996 147.237276,12.9429708 C146.751458,12.4416421 146.175153,12.0424418 145.508344,11.7453581 C144.841535,11.4482744 144.117581,11.2997347 143.336462,11.2997347 C142.555343,11.2997347 141.83139,11.4482744 141.164581,11.7453581 C140.497772,12.0424418 139.921467,12.4416421 139.435649,12.9429708 C138.949831,13.4442996 138.568803,14.0338162 138.292553,14.7115385 C138.016304,15.3892607 137.878181,16.1087495 137.878181,16.8700265 Z M157.025031,22.2453581 L157.568002,22.2453581 C157.720415,22.2453581 157.858538,22.2639255 157.982374,22.301061 C158.10621,22.3381965 158.168127,22.4588849 158.168127,22.66313 L158.168127,23.3872679 C158.168127,23.5729452 158.101447,23.6889918 157.968085,23.7354111 C157.834723,23.7818305 157.672786,23.8050398 157.48227,23.8050398 L157.053609,23.8050398 C156.577316,23.8050398 156.129609,23.7539793 155.710471,23.6518568 C155.291334,23.5497342 154.924595,23.3594178 154.610242,23.0809019 C154.295889,22.8023859 154.052984,22.4217531 153.881519,21.938992 C153.710053,21.456231 153.624322,20.8342213 153.624322,20.0729443 L153.624322,11.5225464 L151.652482,11.5225464 C151.461965,11.5225464 151.323843,11.4900534 151.23811,11.4250663 C151.152378,11.3600793 151.109512,11.2254652 151.109512,11.0212202 L151.109512,10.5198939 C151.109512,10.3156488 151.152378,10.1810348 151.23811,10.1160477 C151.323843,10.0510607 151.461965,10.0185676 151.652482,10.0185676 L153.624322,10.0185676 L153.624322,5.89655172 C153.624322,5.61803574 153.786259,5.46021239 154.110138,5.42307692 L154.824572,5.31167109 C155.015089,5.27453562 155.138923,5.32095426 155.196078,5.45092838 C155.253233,5.58090251 155.281811,5.72944214 155.281811,5.89655172 L155.281811,10.0185676 L157.768043,10.0185676 C158.149077,10.0185676 158.339591,10.1949584 158.339591,10.5477454 L158.339591,10.9933687 C158.339591,11.3461556 158.149077,11.5225464 157.768043,11.5225464 L155.281811,11.5225464 L155.281811,19.6830239 C155.281811,20.6671137 155.424696,21.3262583 155.710471,21.6604775 C155.996247,21.9946966 156.434429,22.1896549 157.025031,22.2453581 Z M167.570088,23.9721485 C166.617503,23.9721485 165.722087,23.786474 164.883813,23.4151194 C164.045539,23.0437647 163.316823,22.5331597 162.697643,21.8832891 C162.078463,21.2334185 161.592652,20.4767948 161.240196,19.6133952 C160.88774,18.7499957 160.711514,17.8355486 160.711514,16.8700265 C160.711514,15.8859367 160.88774,14.9622059 161.240196,14.0988064 C161.592652,13.2354068 162.0737,12.4787831 162.683354,11.8289125 C163.293008,11.1790418 164.007436,10.6684369 164.826658,10.2970822 C165.645881,9.92572759 166.522245,9.74005305 167.455778,9.74005305 C168.351207,9.74005305 169.194232,9.92108572 169.984877,10.2831565 C170.775522,10.6452273 171.466135,11.1372648 172.056738,11.7592838 C172.64734,12.3813028 173.118862,13.1100754 173.471318,13.9456233 C173.823775,14.7811713 174,15.6724091 174,16.6193634 C174,16.9535826 173.895217,17.176392 173.685649,17.2877984 C173.47608,17.3992048 173.209361,17.4549072 172.885482,17.4549072 L162.369003,17.4549072 C162.407106,18.1419132 162.569043,18.7871323 162.854819,19.3905836 C163.140594,19.9940348 163.516859,20.5185654 163.983625,20.964191 C164.450392,21.4098166 164.988594,21.7625982 165.598248,22.0225464 C166.207902,22.2824947 166.855649,22.4217506 167.54151,22.4403183 L167.598665,22.4403183 C168.398836,22.4403183 169.156129,22.2824949 169.870567,21.9668435 C170.585006,21.6511921 171.199413,21.2334244 171.713809,20.7135279 C171.847171,20.5835537 171.980531,20.5185676 172.113892,20.5185676 C172.247254,20.5185676 172.361563,20.5649863 172.456821,20.6578249 L172.79975,21.1312997 C172.933111,21.2798416 172.990266,21.4098138 172.971214,21.5212202 C172.952162,21.6326266 172.828328,21.7904499 172.599708,21.994695 C171.913847,22.5888624 171.151791,23.0669743 170.313517,23.4290451 C169.475243,23.7911159 168.560775,23.9721485 167.570088,23.9721485 Z M167.398623,11.3275862 C166.769918,11.3275862 166.179324,11.4436328 165.626825,11.6757294 C165.074326,11.9078261 164.57899,12.2281147 164.140801,12.6366048 C163.702612,13.0450949 163.335873,13.5278487 163.040572,14.0848806 C162.74527,14.6419126 162.540468,15.2546386 162.426158,15.9230769 L172.371089,15.9230769 C172.294882,15.2732063 172.104368,14.6651222 171.799541,14.0988064 C171.494714,13.5324905 171.118449,13.0450949 170.670734,12.6366048 C170.22302,12.2281147 169.718157,11.9078261 169.156133,11.6757294 C168.594108,11.4436328 168.008277,11.3275862 167.398623,11.3275862 Z" id="path-1"></path>
    </defs>
    <g id="Frontpage" stroke="none" stroke-width="1" fill="none" fill-rule="evenodd" transform="translate(-49.000000, -25.000000)">
        <g id="Header-menu" transform="translate(49.000000, 8.000000)">
            <g id="Group-24">
                <g id="Group-5" transform="translate(0.000000, 17.000000)">
                    <g id="driversnote">
                        <use fill="#FFFFFF" xlink:href="#path-1"></use>
                        <use fill="#00A380" xlink:href="#path-1"></use>
                    </g>
                    <g id="Group-3" fill="#00A380">
                        <path d="M15.706949,29.3790292 C23.4953165,29.3790292 29.8088422,23.1564102 29.8088422,15.4813193 C29.8088422,7.80629952 23.4953886,1.58395203 15.706949,1.58395203 C7.91828481,1.58395203 1.6050559,7.80617833 1.6050559,15.4813193 C1.6050559,23.1565314 7.9183569,29.3790292 15.706949,29.3790292 Z M15.706949,30.9629812 C7.03235843,30.9629812 0,24.0317681 0,15.4813193 C0,6.9309302 7.0322979,0 15.706949,0 C24.3813697,-1.03000201e-14 31.4138981,6.93104567 31.4138981,15.4813193 C31.4138981,24.0316526 24.3813092,30.9629812 15.706949,30.9629812 Z" id="Path-Copy-4" fill-rule="nonzero"></path>
                        <g id="car" transform="translate(7.000000, 8.000000)">
                            <path d="M15.2187262,9.35865235 C14.6511028,9.35865235 14.1913398,8.90159632 14.1913398,8.33831777 C14.1913398,7.7745904 14.6512534,7.3179832 15.2187262,7.3179832 C15.7860484,7.3179832 16.2461126,7.77474001 16.2461126,8.33831777 C16.2462633,8.90174593 15.7860484,9.35865235 15.2187262,9.35865235 L15.2187262,9.35865235 Z M4.95917315,1.897942 C5.0064751,1.81520812 5.29601127,1.627299 5.66056774,1.627299 L12.315983,1.627299 C12.6808407,1.627299 12.9700756,1.81520812 13.0173776,1.897942 L14.1425314,5.06860925 L3.83401931,5.06860925 L4.95917315,1.897942 Z M2.75797515,9.35865235 C2.19035169,9.35865235 1.73028745,8.90159632 1.73028745,8.33831777 C1.73028745,7.7745904 2.19050233,7.3179832 2.75797515,7.3179832 C3.32529733,7.3179832 3.78506028,7.77474001 3.78506028,8.33831777 C3.78521092,8.90174593 3.32529733,9.35865235 2.75797515,9.35865235 L2.75797515,9.35865235 Z M14.5608675,1.35201812 C14.2827802,0.568664475 13.3386995,0 12.315983,0 L5.66056774,0 C4.63785127,0 3.69361988,0.568664475 3.41568323,1.35201812 L1.91949527,5.56800468 C0.774004606,6.22015107 0,7.44634787 0,8.84923311 L0,11.0661419 C0,11.6768465 0.499683394,11.6906106 0.590370582,11.6906106 L1.44707829,11.6906106 L1.44707829,12.6937401 C1.44707829,13.4129114 2.03398408,13.9954895 2.75812579,13.9954895 C3.48196622,13.9954895 4.06857073,13.4127618 4.06857073,12.6937401 L4.06857073,11.6906106 L13.90798,11.6906106 L13.90798,12.6937401 C13.90798,13.4129114 14.4947351,13.9954895 15.2187262,13.9954895 C15.9425666,13.9954895 16.5294724,13.4127618 16.5294724,12.6937401 L16.5294724,11.6906106 L17.3867827,11.6906106 C17.4774699,11.6906106 17.9764001,11.6768465 17.9764001,11.1032449 L17.9764001,8.84923311 C17.9765507,7.44619826 17.2023955,6.22015107 16.0570555,5.56800468 L14.5608675,1.35201812 Z" id="Shape-6"></path>
                        </g>
                    </g>
                </g>
            </g>
        </g>
    </g>
</svg>